<svg width="36" height="36" viewBox="0 0 36 36" fill="none" xmlns="http://www.w3.org/2000/svg">
<path d="M14.5366 33.6064C14.6791 33.5933 14.6518 33.5311 14.4547 33.4199L14.0697 33.2183C13.7119 33.0788 13.5214 33.0388 13.4982 33.0984L13.5975 33.2402C13.9022 33.4277 14.2152 33.5498 14.5366 33.6064ZM23.5802 34.1961C23.6151 34.1066 23.5878 34.0445 23.4984 34.0096C23.2301 33.905 22.4994 33.9292 21.3063 34.0822C20.3502 34.1559 19.8314 34.2971 19.75 34.5058C19.7384 34.5356 19.7475 34.5563 19.7773 34.568L19.822 34.5854C20.0904 34.69 20.7589 34.6931 21.8277 34.5947C22.9379 34.478 23.5221 34.3452 23.5802 34.1961ZM11.6719 27.0798C11.4122 26.6007 11.1929 26.3263 11.014 26.2565C10.6861 26.1287 10.3186 26.5865 9.91177 27.6299C9.60951 28.4051 9.62236 28.8566 9.95031 28.9845C10.1292 29.0542 10.4324 29.0694 10.8599 29.03C11.3289 28.9725 11.6389 28.7499 11.79 28.3623C11.9528 27.9449 11.9134 27.5174 11.6719 27.0798ZM15.906 28.1125C15.57 27.7411 15.3423 27.5321 15.2231 27.4856C15.1038 27.4391 14.7814 27.6053 14.2558 27.9843C13.7717 28.345 13.4889 28.6298 13.4076 28.8385C13.3146 29.077 13.3724 29.2369 13.5811 29.3183C13.8196 29.4113 14.2777 29.4697 14.9553 29.4935C15.6744 29.4991 16.0921 29.3529 16.2084 29.0547C16.313 28.7864 16.2122 28.4723 15.906 28.1125ZM24.3666 30.3296C24.6349 30.4342 24.8454 30.3789 24.998 30.1636C25.0263 30.003 24.9569 29.8728 24.7896 29.7733C24.4617 29.6454 24.257 29.6858 24.1756 29.8945C24.0942 30.1032 24.1579 30.2482 24.3666 30.3296ZM27.1229 27.4888C27.0654 27.0199 26.9242 26.5011 26.6993 25.9326C26.4861 25.3343 26.305 25.0061 26.1559 24.9479C26.1261 24.9363 26.0996 24.9603 26.0763 25.0199C26.0415 25.1094 26.0583 25.6827 26.127 26.7399C26.2072 27.7672 26.2837 28.3638 26.3565 28.5295C26.4111 28.6538 26.5776 28.6672 26.856 28.5697C27.1112 28.5318 27.2002 28.1716 27.1229 27.4888ZM23.5832 25.3358C23.5787 24.8189 23.5219 24.4361 23.4128 24.1874C23.3335 23.9504 23.1298 23.768 22.8019 23.6401C22.3845 23.4774 21.5429 23.3896 20.277 23.3769C18.8919 23.3177 17.5409 23.0828 16.224 22.6724C14.5858 22.2053 13.5264 22.0155 13.0458 22.1029C12.6066 22.1721 12.236 22.5942 11.9337 23.3694C11.731 23.9773 11.6428 24.4237 11.669 24.7088C11.7069 24.9639 11.8913 25.3278 12.2223 25.8003L12.9893 26.8722L14.1354 26.4433C14.8465 26.2053 15.3958 26.1619 15.7833 26.313C16.2007 26.4758 16.7255 27.0238 17.3576 27.9572C17.8457 28.7315 18.2835 29.1941 18.6711 29.3452C19.0885 29.508 19.9435 29.4292 21.2362 29.109C22.3333 28.8498 23.0271 28.3476 23.3178 27.6022C23.527 27.0656 23.6155 26.3101 23.5832 25.3358ZM10.5462 18.6037C10.5811 18.5143 10.4669 18.3667 10.2036 18.161C10.1076 18.0549 10.0298 17.9902 9.97016 17.967C9.82109 17.9088 9.64371 18.0114 9.43802 18.2747C9.24395 18.5081 8.74538 19.2582 7.9423 20.525C7.67849 20.9374 7.47026 21.2512 7.31764 21.4664C6.08649 23.3906 5.12525 24.5786 4.43391 25.0303C3.52376 25.6028 2.7955 26.5896 2.24912 27.9909C2.03987 28.5275 2.02468 28.8307 2.20356 28.9005C2.5017 29.0167 2.91178 29.0221 3.4338 28.9165C3.974 28.8524 4.42149 28.7177 4.77625 28.5126C5.14263 28.2776 5.73167 27.3395 6.54337 25.6983C7.33688 24.0156 8.19077 22.4423 9.10504 20.9784C9.98443 19.604 10.4648 18.8124 10.5462 18.6037ZM22.5648 22.0021C22.3844 21.76 21.7426 21.4239 20.6395 20.9938C19.3459 20.5237 18.2774 20.3131 17.434 20.3621C17.149 20.3883 16.5593 20.2271 15.6649 19.8783C14.8301 19.5528 14.3487 19.5541 14.2209 19.882C14.0697 20.2696 14.4712 20.6494 15.4252 21.0214C16.0215 21.2539 16.8763 21.4841 17.9895 21.7121C20.978 22.3279 22.5245 22.5016 22.6292 22.2333C22.664 22.1438 22.6426 22.0668 22.5648 22.0021ZM28.2353 23.1827C27.7603 22.551 27.3737 22.177 27.0756 22.0608C26.9862 22.0259 27.0258 22.1444 27.1946 22.4163C27.2906 22.5224 27.4288 22.6965 27.6092 22.9386C28.0841 23.5703 28.4856 23.9501 28.8135 24.078C28.903 24.1129 28.8666 24.03 28.7044 23.8293C28.668 23.7465 28.5778 23.6254 28.4338 23.4662L28.2353 23.1827ZM11.7888 15.9455C12.0359 15.6641 12.2459 15.2136 12.4188 14.5941C12.5285 14.2247 12.5535 14.0284 12.4939 14.0051C12.4641 13.9935 12.2733 14.2626 11.9215 14.8123C11.6693 15.1948 11.4967 15.5054 11.4037 15.7439C11.2875 16.042 11.2741 16.2085 11.3635 16.2434C11.4529 16.2783 11.5947 16.179 11.7888 15.9455ZM12.2235 10.6024C12.2584 10.513 12.2311 10.4508 12.1417 10.4159C12.0224 10.3694 11.9454 10.3909 11.9105 10.4804C11.864 10.5996 11.9004 10.6825 12.0196 10.729C12.1091 10.7639 12.177 10.7217 12.2235 10.6024ZM13.0226 9.21383C13.2101 8.90913 13.3321 8.59609 13.3888 8.2747C13.3691 8.06094 13.2546 8.22239 13.0454 8.75903C12.9059 9.1168 12.851 9.30149 12.8808 9.31312L13.0226 9.21383ZM13.9459 7.77067C14.0935 7.65648 14.1516 7.50741 14.1203 7.32347C14.0839 7.24059 14.0243 7.21734 13.9414 7.25372C13.9 7.27191 13.856 7.34063 13.8095 7.45988C13.763 7.57914 13.7431 7.67439 13.7496 7.74564C13.7976 7.79871 13.8631 7.80705 13.9459 7.77067ZM27.3669 10.4793C27.5705 10.6618 27.7701 10.7224 27.9657 10.6613C28.0485 10.6249 28.0362 10.5686 27.9285 10.4923C27.8391 10.4574 27.7348 10.4167 27.6155 10.3702C27.4366 10.3005 27.3265 10.2747 27.285 10.2929C27.2436 10.3111 27.2469 10.3467 27.2949 10.3997C27.3131 10.4412 27.3371 10.4677 27.3669 10.4793ZM17.1534 3.5087C17.2696 3.21057 17.1787 3.00337 16.8806 2.88712C16.5526 2.75924 16.2666 3.00835 16.0224 3.63444C15.7783 4.26053 15.7606 4.61426 15.9693 4.69563C16.1184 4.75376 16.3107 4.657 16.5462 4.40537C16.8231 4.13554 17.0255 3.83665 17.1534 3.5087ZM26.3439 6.62862C23.9113 5.02753 22.2628 4.05842 21.3982 3.72129C20.9808 3.55854 20.7041 3.51935 20.5682 3.60373C20.3675 3.76593 20.4312 3.91096 20.7592 4.03884C21.0573 4.15509 21.2061 4.52222 21.2055 5.14025C21.2085 5.48488 21.2671 5.73099 21.3813 5.87855C21.5253 6.03775 21.8209 6.20453 22.2681 6.37891L22.8942 6.62303C23.5203 6.86716 24.3576 7.14213 25.4062 7.44794C26.4845 7.76538 27.4229 8.04541 28.2213 8.28804C29.0313 8.50085 29.4422 8.59234 29.4538 8.56253L29.3644 8.52766C28.3492 7.96008 27.3424 7.32707 26.3439 6.62862ZM28.7748 6.34002C28.8097 6.25058 28.6988 6.13864 28.4421 6.0042C28.1738 5.89957 28.0131 5.87126 27.96 5.91926L28.0146 6.04358C28.2298 6.19621 28.4832 6.29502 28.7748 6.34002ZM19.5474 0.0114855C20.26 -0.0541494 21.2572 0.162973 22.5392 0.662852C23.4634 1.02323 24.2477 1.3462 24.892 1.63177C27.7672 2.89028 30.2498 4.09873 32.3398 5.25713L35.7529 7.20622L35.3147 8.06576C35.0109 8.6686 34.9823 9.1383 35.2289 9.47487C35.4341 9.82963 35.4509 10.4029 35.2796 11.1948C35.2462 11.4565 35.1714 11.7365 35.0551 12.0346C34.9505 12.3029 34.7044 12.3615 34.3168 12.2104C33.9591 12.0709 33.7536 12.0252 33.7006 12.0732C33.6773 12.1328 33.7567 12.3698 33.9385 12.7842C34.1634 13.3527 34.0893 13.7188 33.7164 13.8825C33.1777 14.119 31.8499 13.8245 29.7331 12.9991C28.5406 12.5341 27.4127 11.9913 26.3496 11.3707C24.6654 10.4048 22.9587 9.5848 21.2295 8.91054C20.0071 8.43391 19.2865 8.25598 19.0677 8.37673C18.8969 8.55055 18.2745 9.75042 17.2005 11.9763L15.6614 15.3948L16.5558 15.7435C18.3927 16.4941 20.824 17.6139 23.8498 19.1028C26.9171 20.5736 28.7678 21.5528 29.4019 22.0405C30.407 22.8102 31.1277 23.6923 31.5643 24.6869L32.2191 26.1787L31.0735 28.7202C30.514 29.9789 30.0518 30.8119 29.6869 31.2192C29.322 31.6264 28.3687 32.3538 26.8268 33.4012C25.3795 34.3825 24.3657 35.0004 23.7856 35.255C23.2469 35.4915 22.4638 35.6498 21.4365 35.7301C19.8209 35.8214 17.8734 35.6631 15.5939 35.2551C13.8975 34.9371 12.7214 34.6503 12.0655 34.3945C11.4095 34.1388 10.7529 33.7968 10.0955 33.3688C9.43809 32.9407 8.85597 32.6279 8.34914 32.4302C7.90193 32.2558 7.26244 32.1782 6.43066 32.1974C5.49781 32.2114 4.52456 32.0208 3.51089 31.6256C2.07983 31.0676 1.03663 30.3517 0.381285 29.4779C-0.00929737 28.9822 -0.0999626 28.466 0.109289 27.9293C0.144164 27.8399 0.354167 27.3894 0.739297 26.5778C1.77994 24.6137 2.63711 23.076 3.31081 21.9649C4.03101 20.7344 5.42847 18.1195 7.50319 14.1199C9.58953 10.0906 11.0236 7.24944 11.8055 5.59656C12.1558 4.87446 12.7895 3.9538 13.7068 2.83456C14.6241 1.71532 15.3074 1.02004 15.7566 0.748712C16.1412 0.5552 16.4426 0.707076 16.6609 1.20434C16.7882 1.49442 16.9115 1.6627 17.0307 1.7092C17.1202 1.74408 17.3084 1.52554 17.5955 1.05358C18.0418 0.437612 18.6924 0.0902485 19.5474 0.0114855Z" fill="white"/>
</svg>
