<svg width="67" height="67" viewBox="0 0 67 67" fill="none" xmlns="http://www.w3.org/2000/svg">
<g clip-path="url(#clip0_1_1193)">
<path d="M23.8164 67.5234C30.0453 67.5234 35.0703 62.4984 35.0703 56.2695V45.0156H23.8164C17.5875 45.0156 12.5625 50.0406 12.5625 56.2695C12.5625 62.4984 17.5875 67.5234 23.8164 67.5234Z" fill="#0ACF83"/>
<path d="M12.5625 33.7617C12.5625 27.5328 17.5875 22.5078 23.8164 22.5078H35.0703V45.0156H23.8164C17.5875 45.0156 12.5625 39.9906 12.5625 33.7617Z" fill="#A259FF"/>
<path d="M12.5625 11.2539C12.5625 5.025 17.5875 0 23.8164 0H35.0703V22.5078H23.8164C17.5875 22.5078 12.5625 17.4828 12.5625 11.2539Z" fill="#F24E1E"/>
<path d="M35.0703 0H46.3242C52.5531 0 57.5781 5.025 57.5781 11.2539C57.5781 17.4828 52.5531 22.5078 46.3242 22.5078H35.0703V0Z" fill="#FF7262"/>
<path d="M57.5781 33.7617C57.5781 39.9906 52.5531 45.0156 46.3242 45.0156C40.0953 45.0156 35.0703 39.9906 35.0703 33.7617C35.0703 27.5328 40.0953 22.5078 46.3242 22.5078C52.5531 22.5078 57.5781 27.5328 57.5781 33.7617Z" fill="#1ABCFE"/>
</g>
<defs>
<clipPath id="clip0_1_1193">
<rect width="67" height="67" fill="white"/>
</clipPath>
</defs>
</svg>
