<svg width="73" height="73" viewBox="0 0 73 73" fill="none" xmlns="http://www.w3.org/2000/svg">
<path d="M36.4997 6.08398C32.5053 6.08398 28.55 6.87073 24.8597 8.39932C21.1694 9.9279 17.8163 12.1684 14.9918 14.9928C9.28761 20.6971 6.08301 28.4336 6.08301 36.5007C6.08301 49.9448 14.8126 61.3511 26.888 65.3965C28.4088 65.6398 28.8955 64.6969 28.8955 63.8757V58.7352C20.4701 60.5602 18.6755 54.6594 18.6755 54.6594C17.2763 51.1311 15.2993 50.1882 15.2993 50.1882C12.5313 48.3023 15.5122 48.3632 15.5122 48.3632C18.5538 48.5761 20.1659 51.4961 20.1659 51.4961C22.8122 56.1194 27.2834 54.7507 29.0172 54.0207C29.2909 52.0436 30.0818 50.7052 30.9334 49.9448C24.1809 49.1844 17.0938 46.5686 17.0938 34.9798C17.0938 31.6036 18.2497 28.8965 20.2268 26.7369C19.9226 25.9765 18.858 22.8132 20.5309 18.7069C20.5309 18.7069 23.0859 17.8857 28.8955 21.8094C31.2984 21.1402 33.9143 20.8057 36.4997 20.8057C39.0851 20.8057 41.7009 21.1402 44.1038 21.8094C49.9134 17.8857 52.4684 18.7069 52.4684 18.7069C54.1413 22.8132 53.0768 25.9765 52.7726 26.7369C54.7497 28.8965 55.9055 31.6036 55.9055 34.9798C55.9055 46.599 48.788 49.154 42.0051 49.9144C43.1001 50.8573 44.1038 52.7127 44.1038 55.5415V63.8757C44.1038 64.6969 44.5905 65.6702 46.1418 65.3965C58.2172 61.3207 66.9163 49.9448 66.9163 36.5007C66.9163 32.5063 66.1296 28.551 64.601 24.8607C63.0724 21.1704 60.832 17.8173 58.0075 14.9928C55.1831 12.1684 51.8299 9.9279 48.1396 8.39932C44.4493 6.87073 40.494 6.08398 36.4997 6.08398Z" fill="black"/>
</svg>
