<svg width="74" height="66" viewBox="0 0 74 66" fill="none" xmlns="http://www.w3.org/2000/svg">
<path d="M5.59452 56.4998L8.85803 62.1199C9.53617 63.3033 10.5109 64.2331 11.6553 64.9092C14.9331 60.7607 17.2147 57.5772 18.5003 55.3588C19.8049 53.1075 21.4084 49.586 23.3106 44.7945C18.1838 44.1216 14.2988 43.7852 11.6556 43.7852C9.11857 43.7852 5.23338 44.1216 0 44.7945C0 46.1044 0.33907 47.4143 1.01721 48.5977L5.59452 56.4998Z" fill="#0066DA"/>
<path d="M62.3452 64.9092C63.4899 64.2331 64.4646 63.3033 65.1425 62.1202L66.4988 59.7961L72.9836 48.5977C73.6491 47.4399 73.9997 46.1289 74.0005 44.7945C68.7367 44.1216 64.8587 43.7852 62.3666 43.7852C59.6882 43.7852 55.8101 44.1216 50.7324 44.7945C52.6121 49.6124 54.1944 53.1338 55.4794 55.3588C56.7752 57.6036 59.0638 60.787 62.3452 64.9092Z" fill="#EA4335"/>
<path d="M37.001 21.1289C40.7935 16.5622 43.4071 13.0407 44.8418 10.5646C45.9973 8.57078 47.2688 5.38731 48.6563 1.01421C47.5119 0.33807 46.1981 0 44.8418 0H29.1602C27.8039 0 26.4904 0.380437 25.3457 1.01421C27.1109 6.02963 28.6086 9.59901 29.8389 11.7223C31.1986 14.069 33.586 17.2045 37.001 21.1289Z" fill="#00832D"/>
<path d="M50.6907 44.793H23.3113L11.6562 64.9077C12.8004 65.5838 14.1141 65.9219 15.4704 65.9219H58.5315C59.8878 65.9219 61.2019 65.5415 62.346 64.9074L50.6907 44.793Z" fill="#2684FC"/>
<path d="M37.0003 21.1281L25.3453 1.01367C24.2006 1.68981 23.2259 2.61929 22.5477 3.80268L1.01721 40.9895C0.351574 42.1472 0.000919654 43.4583 0 44.7927H23.3106L37.0003 21.1281Z" fill="#00AC47"/>
<path d="M62.2178 22.3962L51.4523 3.80268C50.7744 2.61929 49.7994 1.68981 48.655 1.01367L37 21.1284L50.6894 44.793H73.9578C73.9578 43.4828 73.6187 42.1732 72.9406 40.9898L62.2178 22.3962Z" fill="#FFBA00"/>
</svg>
