<svg width="73" height="73" viewBox="0 0 73 73" fill="none" xmlns="http://www.w3.org/2000/svg">
<path d="M69.7653 0H34.7051C34.705 2.07842 35.1143 4.1365 35.9097 6.05672C36.705 7.97694 37.8708 9.7217 39.3405 11.1914C40.8101 12.661 42.5549 13.8268 44.4751 14.6222C46.3953 15.4175 48.4534 15.8268 50.5318 15.8267H56.9903V22.0625C56.996 30.7955 64.0739 37.8736 72.8068 37.8793V3.04148C72.8068 1.36219 71.4455 0 69.7653 0Z" fill="#2684FF"/>
<path d="M52.4174 17.4688H17.3574C17.3628 26.2017 24.4407 33.2798 33.1739 33.2855H39.6324V39.5413C39.6435 48.2742 46.7262 55.3475 55.4591 55.3475V20.5108C55.4591 18.8309 54.0972 17.4688 52.4174 17.4688Z" fill="url(#paint0_linear_1_1687)"/>
<path d="M35.0602 34.9277H0C0 43.6686 7.08613 50.7545 15.8267 50.7545H22.3055V56.99C22.3112 65.7149 29.3768 72.7899 38.102 72.8065V37.9695C38.102 36.2896 36.7401 34.9277 35.0602 34.9277Z" fill="url(#paint1_linear_1_1687)"/>
<defs>
<linearGradient id="paint0_linear_1_1687" x1="54.7089" y1="17.5297" x2="39.8855" y2="32.9973" gradientUnits="userSpaceOnUse">
<stop offset="0.18" stop-color="#0052CC"/>
<stop offset="1" stop-color="#2684FF"/>
</linearGradient>
<linearGradient id="paint1_linear_1_1687" x1="38.3554" y1="35.1001" x2="21.2084" y2="51.9705" gradientUnits="userSpaceOnUse">
<stop offset="0.18" stop-color="#0052CC"/>
<stop offset="1" stop-color="#2684FF"/>
</linearGradient>
</defs>
</svg>
