<svg width="309" height="20" viewBox="0 0 309 20" fill="none" xmlns="http://www.w3.org/2000/svg">
<rect width="309" height="20" fill="#1E1E1E"/>
<g id="Desktop">
<path d="M-2469 -134C-2469 -135.105 -2468.1 -136 -2467 -136H24821C24822.1 -136 24823 -135.105 24823 -134V11283C24823 11284.1 24822.1 11285 24821 11285H-2467C-2468.11 11285 -2469 11284.1 -2469 11283V-134Z" fill="#444444"/>
<path d="M-2467 -136V-135H24821V-136V-137H-2467V-136ZM24823 -134H24822V11283H24823H24824V-134H24823ZM24821 11285V11284H-2467V11285V11286H24821V11285ZM-2469 11283H-2468V-134H-2469H-2470V11283H-2469ZM-2467 11285V11284C-2467.55 11284 -2468 11283.6 -2468 11283H-2469H-2470C-2470 11284.7 -2468.66 11286 -2467 11286V11285ZM24823 11283H24822C24822 11283.6 24821.6 11284 24821 11284V11285V11286C24822.7 11286 24824 11284.7 24824 11283H24823ZM24821 -136V-135C24821.6 -135 24822 -134.553 24822 -134H24823H24824C24824 -135.656 24822.7 -137 24821 -137V-136ZM-2467 -136V-137C-2468.66 -137 -2470 -135.657 -2470 -134H-2469H-2468C-2468 -134.552 -2467.55 -135 -2467 -135V-136Z" fill="white" fill-opacity="0.1"/>
<g id="desktop" clip-path="url(#clip0_0_1)">
<rect width="1920" height="7836" transform="translate(-71 -36)" fill="#FEFEFE"/>
<g id="&#208;&#189;&#208;&#176;&#208;&#178; &#208;&#177;&#208;&#176;&#209;&#128;" filter="url(#filter0_d_0_1)">
<path d="M-71 -36H1849V22C1849 39.6731 1834.67 54 1817 54H-39C-56.6731 54 -71 39.6731 -71 22V-36Z" fill="#F5F5F5"/>
<g id="&#208;&#189;&#208;&#176;&#208;&#178; &#208;&#177;&#208;&#176;&#209;&#128;_2">
<g id="&#208;&#187;&#208;&#190;&#208;&#179;&#208;&#190;&#209;&#130;&#208;&#184;&#208;&#191;">
<path d="M6.49708 1.73262H9.26358V16.4706H6.49708V1.73262ZM0 0.427807H15.7607V2.90909H0V0.427807Z" fill="#242424"/>
<path d="M33.6196 10.1176C33.4799 11.4296 33.0258 12.5918 32.2573 13.6043C31.5028 14.6025 30.5108 15.3797 29.2812 15.9358C28.0517 16.492 26.6475 16.7701 25.0686 16.7701C23.3081 16.7701 21.7642 16.4207 20.4368 15.7219C19.1095 15.0232 18.0755 14.0535 17.335 12.8128C16.5945 11.5579 16.2242 10.1034 16.2242 8.4492C16.2242 6.79501 16.5945 5.34759 17.335 4.10695C18.0755 2.85205 19.1095 1.87522 20.4368 1.17647C21.7642 0.477718 23.3081 0.128342 25.0686 0.128342C26.6475 0.128342 28.0517 0.406417 29.2812 0.962567C30.5108 1.51872 31.5028 2.2959 32.2573 3.29412C33.0258 4.29234 33.4799 5.45455 33.6196 6.78075H30.8322C30.6785 5.92513 30.3431 5.19073 29.8262 4.57754C29.3232 3.96435 28.6665 3.49376 27.8561 3.16578C27.0457 2.82353 26.1096 2.65241 25.0477 2.65241C23.8181 2.65241 22.7492 2.8877 21.841 3.35829C20.9468 3.82888 20.2552 4.49911 19.7662 5.36898C19.2771 6.23886 19.0326 7.2656 19.0326 8.4492C19.0326 9.6328 19.2771 10.6595 19.7662 11.5294C20.2552 12.3993 20.9468 13.0695 21.841 13.5401C22.7492 14.0107 23.8181 14.246 25.0477 14.246C26.1096 14.246 27.0457 14.082 27.8561 13.754C28.6665 13.426 29.3232 12.9554 29.8262 12.3422C30.3431 11.7148 30.6785 10.9733 30.8322 10.1176H33.6196Z" fill="#242424"/>
<path d="M51.6251 0.427807V16.4706H48.8796V1.64706L50.1371 2.93048H37.6669L38.9244 1.64706V16.4706H36.1579V0.427807H51.6251Z" fill="#242424"/>
<path d="M55.1514 16.4706V0.427807H57.9179V14.0963L57.0795 13.5615L67.6006 0.427807H70.5976L57.6244 16.4706H55.1514ZM62.6335 8.40642L64.5826 6.45989L70.8282 16.4706H67.6635L62.6335 8.40642Z" fill="#242424"/>
<path d="M93.3903 0.427807V16.4706H90.6448V1.64706L91.9023 2.93048H79.4321L80.6896 1.64706V16.4706H77.9231V0.427807H93.3903Z" fill="#1828D3"/>
<path d="M96.4794 4.36364H99.204V8.57754L99.0782 9.00535V11.4439L99.204 12.1925V20H96.4794V4.36364ZM98.1561 10.4171C98.4215 9.13369 98.8617 8.02139 99.4764 7.08021C100.091 6.12478 100.846 5.38324 101.74 4.85561C102.648 4.32799 103.654 4.06417 104.758 4.06417C105.918 4.06417 106.945 4.33512 107.839 4.877C108.733 5.40463 109.432 6.14617 109.935 7.1016C110.438 8.04278 110.689 9.14795 110.689 10.4171C110.689 11.672 110.438 12.7772 109.935 13.7326C109.432 14.6881 108.733 15.4367 107.839 15.9786C106.945 16.5062 105.918 16.7701 104.758 16.7701C103.654 16.7701 102.655 16.5062 101.761 15.9786C100.867 15.451 100.105 14.7094 99.4764 13.754C98.8617 12.7986 98.4215 11.6863 98.1561 10.4171ZM107.923 10.4171C107.923 9.60428 107.755 8.89127 107.42 8.27808C107.098 7.65062 106.651 7.16578 106.078 6.82353C105.505 6.46702 104.849 6.28877 104.108 6.28877C103.368 6.28877 102.669 6.46702 102.012 6.82353C101.37 7.16578 100.804 7.65062 100.315 8.27808C99.8257 8.89127 99.4275 9.60428 99.1201 10.4171C99.4275 11.2299 99.8257 11.9501 100.315 12.5775C100.804 13.1907 101.37 13.6756 102.012 14.0321C102.669 14.3743 103.368 14.5455 104.108 14.5455C104.849 14.5455 105.505 14.3743 106.078 14.0321C106.651 13.6756 107.098 13.1907 107.42 12.5775C107.755 11.9501 107.923 11.2299 107.923 10.4171Z" fill="#1828D3"/>
<path d="M119.515 16.7701C118.076 16.7701 116.812 16.5062 115.722 15.9786C114.646 15.4367 113.801 14.6881 113.186 13.7326C112.585 12.7772 112.285 11.672 112.285 10.4171C112.285 9.14795 112.585 8.04278 113.186 7.1016C113.801 6.14617 114.646 5.40463 115.722 4.877C116.812 4.33512 118.076 4.06417 119.515 4.06417C120.955 4.06417 122.212 4.33512 123.288 4.877C124.378 5.40463 125.223 6.14617 125.824 7.1016C126.439 8.04278 126.746 9.14795 126.746 10.4171C126.746 11.672 126.439 12.7772 125.824 13.7326C125.223 14.6881 124.378 15.4367 123.288 15.9786C122.212 16.5062 120.955 16.7701 119.515 16.7701ZM119.515 14.5882C120.438 14.5882 121.227 14.4171 121.884 14.0749C122.554 13.7326 123.071 13.2549 123.435 12.6417C123.798 12.0143 123.98 11.2727 123.98 10.4171C123.98 9.5615 123.798 8.8271 123.435 8.2139C123.071 7.58645 122.554 7.1016 121.884 6.75936C121.227 6.41711 120.438 6.24599 119.515 6.24599C118.607 6.24599 117.818 6.41711 117.147 6.75936C116.476 7.1016 115.959 7.58645 115.596 8.2139C115.233 8.8271 115.051 9.5615 115.051 10.4171C115.051 11.2727 115.233 12.0143 115.596 12.6417C115.959 13.2549 116.476 13.7326 117.147 14.0749C117.818 14.4171 118.607 14.5882 119.515 14.5882Z" fill="#1828D3"/>
<path d="M139.461 20V12.8128L139.712 11.8289V8.87701L139.461 7.87166V0H142.144V7.89305L141.892 8.87701V11.8075L142.144 12.8128V20H139.461ZM141.096 10.4171C141.361 9.13369 141.787 8.02139 142.374 7.08021C142.961 6.12478 143.687 5.38324 144.554 4.85561C145.434 4.32799 146.419 4.06417 147.509 4.06417C148.655 4.06417 149.661 4.33512 150.527 4.877C151.393 5.40463 152.071 6.14617 152.56 7.1016C153.049 8.04278 153.293 9.14795 153.293 10.4171C153.293 11.672 153.049 12.7772 152.56 13.7326C152.071 14.6881 151.393 15.4367 150.527 15.9786C149.661 16.5062 148.655 16.7701 147.509 16.7701C146.419 16.7701 145.434 16.5062 144.554 15.9786C143.687 15.451 142.961 14.7094 142.374 13.754C141.787 12.7986 141.361 11.6863 141.096 10.4171ZM150.527 10.4171C150.527 9.60428 150.366 8.89127 150.045 8.27808C149.737 7.65062 149.311 7.16578 148.766 6.82353C148.221 6.46702 147.586 6.28877 146.859 6.28877C145.755 6.28877 144.784 6.6738 143.946 7.44385C143.108 8.19964 142.465 9.19073 142.018 10.4171C142.465 11.6292 143.108 12.6275 143.946 13.4118C144.784 14.1818 145.755 14.5668 146.859 14.5668C147.586 14.5668 148.221 14.3886 148.766 14.0321C149.311 13.6756 149.737 13.1907 150.045 12.5775C150.366 11.9501 150.527 11.2299 150.527 10.4171ZM140.509 10.4171C140.257 11.6863 139.831 12.7986 139.23 13.754C138.643 14.7094 137.917 15.451 137.051 15.9786C136.184 16.5062 135.206 16.7701 134.116 16.7701C132.971 16.7701 131.965 16.5062 131.098 15.9786C130.232 15.4367 129.555 14.6881 129.066 13.7326C128.576 12.7772 128.332 11.672 128.332 10.4171C128.332 9.14795 128.576 8.04278 129.066 7.1016C129.555 6.14617 130.232 5.40463 131.098 4.877C131.965 4.33512 132.971 4.06417 134.116 4.06417C135.206 4.06417 136.184 4.32799 137.051 4.85561C137.917 5.38324 138.643 6.12478 139.23 7.08021C139.831 8.02139 140.257 9.13369 140.509 10.4171ZM131.098 10.4171C131.098 11.2299 131.252 11.9501 131.56 12.5775C131.867 13.1907 132.293 13.6756 132.838 14.0321C133.397 14.3886 134.033 14.5668 134.745 14.5668C135.863 14.5668 136.834 14.1818 137.658 13.4118C138.497 12.6275 139.146 11.6292 139.608 10.4171C139.146 9.19073 138.497 8.19964 137.658 7.44385C136.834 6.6738 135.863 6.28877 134.745 6.28877C134.033 6.28877 133.397 6.46702 132.838 6.82353C132.293 7.16578 131.867 7.65062 131.56 8.27808C131.252 8.89127 131.098 9.60428 131.098 10.4171Z" fill="#1828D3"/>
<path d="M162.107 16.7701C160.668 16.7701 159.404 16.5062 158.314 15.9786C157.238 15.4367 156.393 14.6881 155.778 13.7326C155.177 12.7772 154.877 11.672 154.877 10.4171C154.877 9.14795 155.177 8.04278 155.778 7.1016C156.393 6.14617 157.238 5.40463 158.314 4.877C159.404 4.33512 160.668 4.06417 162.107 4.06417C163.547 4.06417 164.804 4.33512 165.88 4.877C166.97 5.40463 167.815 6.14617 168.416 7.1016C169.031 8.04278 169.338 9.14795 169.338 10.4171C169.338 11.672 169.031 12.7772 168.416 13.7326C167.815 14.6881 166.97 15.4367 165.88 15.9786C164.804 16.5062 163.547 16.7701 162.107 16.7701ZM162.107 14.5882C163.03 14.5882 163.819 14.4171 164.476 14.0749C165.146 13.7326 165.663 13.2549 166.027 12.6417C166.39 12.0143 166.572 11.2727 166.572 10.4171C166.572 9.5615 166.39 8.8271 166.027 8.2139C165.663 7.58645 165.146 7.1016 164.476 6.75936C163.819 6.41711 163.03 6.24599 162.107 6.24599C161.199 6.24599 160.41 6.41711 159.739 6.75936C159.069 7.1016 158.552 7.58645 158.188 8.2139C157.825 8.8271 157.643 9.5615 157.643 10.4171C157.643 11.2727 157.825 12.0143 158.188 12.6417C158.552 13.2549 159.069 13.7326 159.739 14.0749C160.41 14.4171 161.199 14.5882 162.107 14.5882Z" fill="#1828D3"/>
<path d="M171.553 4.36364H174.277V8.57754L174.152 9.00535V11.4439L174.277 12.1925V20H171.553V4.36364ZM173.229 10.4171C173.495 9.13369 173.935 8.02139 174.55 7.08021C175.165 6.12478 175.919 5.38324 176.813 4.85561C177.722 4.32799 178.728 4.06417 179.831 4.06417C180.991 4.06417 182.018 4.33512 182.912 4.877C183.806 5.40463 184.505 6.14617 185.008 7.1016C185.511 8.04278 185.763 9.14795 185.763 10.4171C185.763 11.672 185.511 12.7772 185.008 13.7326C184.505 14.6881 183.806 15.4367 182.912 15.9786C182.018 16.5062 180.991 16.7701 179.831 16.7701C178.728 16.7701 177.729 16.5062 176.834 15.9786C175.94 15.451 175.179 14.7094 174.55 13.754C173.935 12.7986 173.495 11.6863 173.229 10.4171ZM182.996 10.4171C182.996 9.60428 182.828 8.89127 182.493 8.27808C182.172 7.65062 181.725 7.16578 181.152 6.82353C180.579 6.46702 179.922 6.28877 179.182 6.28877C178.441 6.28877 177.742 6.46702 177.086 6.82353C176.443 7.16578 175.877 7.65062 175.388 8.27808C174.899 8.89127 174.501 9.60428 174.194 10.4171C174.501 11.2299 174.899 11.9501 175.388 12.5775C175.877 13.1907 176.443 13.6756 177.086 14.0321C177.742 14.3743 178.441 14.5455 179.182 14.5455C179.922 14.5455 180.579 14.3743 181.152 14.0321C181.725 13.6756 182.172 13.1907 182.493 12.5775C182.828 11.9501 182.996 11.2299 182.996 10.4171Z" fill="#1828D3"/>
<path d="M188.029 16.4706V4.36364H190.711V15.0802L189.894 14.8877L198.005 4.36364H201.526V16.4706H198.843V5.60428L199.682 5.81818L191.466 16.4706H188.029Z" fill="#1828D3"/>
<path d="M210.899 16.7701C209.516 16.7701 208.286 16.5062 207.21 15.9786C206.135 15.4367 205.289 14.6881 204.674 13.7326C204.06 12.7772 203.752 11.6649 203.752 10.3957C203.752 9.14082 204.039 8.04278 204.612 7.1016C205.198 6.14617 206.002 5.40463 207.022 4.877C208.056 4.33512 209.236 4.06417 210.564 4.06417C211.891 4.06417 213.037 4.37077 214.001 4.98396C214.979 5.58289 215.734 6.43137 216.264 7.52941C216.795 8.62745 217.061 9.918 217.061 11.4011H205.89V9.28342H215.699L214.336 10.0749C214.294 9.27629 214.106 8.5918 213.77 8.02139C213.449 7.45098 213.009 7.01604 212.45 6.71658C211.905 6.40285 211.255 6.24599 210.501 6.24599C209.704 6.24599 209.006 6.40998 208.405 6.73797C207.818 7.06595 207.357 7.52941 207.022 8.12834C206.686 8.71301 206.519 9.41177 206.519 10.2246C206.519 11.123 206.714 11.9002 207.106 12.5562C207.511 13.2121 208.077 13.7184 208.803 14.0749C209.544 14.4171 210.417 14.5882 211.423 14.5882C212.331 14.5882 213.26 14.4456 214.211 14.1604C215.161 13.861 215.999 13.4474 216.726 12.9198V14.9305C215.999 15.5009 215.112 15.9501 214.064 16.2781C213.03 16.6061 211.975 16.7701 210.899 16.7701Z" fill="#1828D3"/>
<path d="M219.303 4.36364H222.006V16.4706H219.303V4.36364ZM229.384 4.36364H232.087V16.4706H229.384V4.36364ZM220.833 9.26203H230.515V11.4011H220.833V9.26203Z" fill="#1828D3"/>
<path d="M238.732 5.3262H241.457V16.4706H238.732V5.3262ZM233.807 4.36364H246.382V6.54545H233.807V4.36364Z" fill="#1828D3"/>
<path d="M258.675 16.4706L258.214 11.9786L258.758 10.4171L258.214 8.87701L258.675 4.36364H261.483L260.854 10.4171L261.483 16.4706H258.675ZM259.513 10.4171C259.247 11.6863 258.807 12.7986 258.193 13.754C257.578 14.7094 256.816 15.451 255.908 15.9786C255.014 16.5062 254.015 16.7701 252.911 16.7701C251.751 16.7701 250.724 16.5062 249.83 15.9786C248.936 15.4367 248.237 14.6881 247.734 13.7326C247.231 12.7772 246.98 11.672 246.98 10.4171C246.98 9.14795 247.231 8.04278 247.734 7.1016C248.237 6.14617 248.936 5.40463 249.83 4.877C250.724 4.33512 251.751 4.06417 252.911 4.06417C254.015 4.06417 255.014 4.32799 255.908 4.85561C256.816 5.38324 257.578 6.12478 258.193 7.08021C258.821 8.02139 259.261 9.13369 259.513 10.4171ZM249.746 10.4171C249.746 11.2299 249.907 11.9501 250.228 12.5775C250.564 13.1907 251.018 13.6756 251.591 14.0321C252.164 14.3743 252.82 14.5455 253.561 14.5455C254.315 14.5455 255.014 14.3743 255.657 14.0321C256.299 13.6756 256.865 13.1907 257.354 12.5775C257.857 11.9501 258.255 11.2299 258.549 10.4171C258.255 9.60428 257.857 8.89127 257.354 8.27808C256.865 7.65062 256.299 7.16578 255.657 6.82353C255.014 6.46702 254.315 6.28877 253.561 6.28877C252.82 6.28877 252.164 6.46702 251.591 6.82353C251.018 7.16578 250.564 7.65062 250.228 8.27808C249.907 8.89127 249.746 9.60428 249.746 10.4171Z" fill="#1828D3"/>
<path d="M276.638 4.36364V14.9305L276.177 14.3316H278.839V19.5294H276.471V15.9786L276.932 16.4706H264.105V4.36364H266.83V14.9305L266.39 14.3316H274.312L273.914 14.9305V4.36364H276.638Z" fill="#1828D3"/>
<path d="M280.806 16.4706V4.36364H283.489V15.0802L282.672 14.8877L290.782 4.36364H294.303V16.4706H291.621V5.60428L292.459 5.81818L284.243 16.4706H280.806Z" fill="#1828D3"/>
<path d="M307.072 10.0749V12.0214H301.078L301.036 11.9572C300.17 11.9572 299.408 11.8004 298.751 11.4866C298.095 11.1729 297.585 10.7308 297.221 10.1604C296.858 9.59002 296.677 8.92692 296.677 8.17112C296.677 7.41533 296.858 6.75223 297.221 6.18182C297.585 5.61141 298.095 5.16934 298.751 4.85561C299.408 4.52763 300.17 4.36364 301.036 4.36364H309V16.4706H306.275V5.15508L307.177 6.35294H301.623C300.938 6.35294 300.4 6.51693 300.009 6.84492C299.632 7.17291 299.443 7.6221 299.443 8.19251C299.443 8.76292 299.632 9.21925 300.009 9.5615C300.4 9.90374 300.938 10.0749 301.623 10.0749H307.072ZM303.991 10.8021L299.59 16.4706H296.425L300.952 10.8021H303.991Z" fill="#1828D3"/>
</g>
</g>
</g>
</g>
</g>
<defs>
<filter id="filter0_d_0_1" x="-75" y="-36" width="1928" height="98" filterUnits="userSpaceOnUse" color-interpolation-filters="sRGB">
<feFlood flood-opacity="0" result="BackgroundImageFix"/>
<feColorMatrix in="SourceAlpha" type="matrix" values="0 0 0 0 0 0 0 0 0 0 0 0 0 0 0 0 0 0 127 0" result="hardAlpha"/>
<feOffset dy="4"/>
<feGaussianBlur stdDeviation="2"/>
<feComposite in2="hardAlpha" operator="out"/>
<feColorMatrix type="matrix" values="0 0 0 0 0.730469 0 0 0 0 0.737488 0 0 0 0 0.8125 0 0 0 0.48 0"/>
<feBlend mode="normal" in2="BackgroundImageFix" result="effect1_dropShadow_0_1"/>
<feBlend mode="normal" in="SourceGraphic" in2="effect1_dropShadow_0_1" result="shape"/>
</filter>
<clipPath id="clip0_0_1">
<rect width="1920" height="7836" fill="white" transform="translate(-71 -36)"/>
</clipPath>
</defs>
</svg>
