<svg width="73" height="73" viewBox="0 0 73 73" fill="none" xmlns="http://www.w3.org/2000/svg">
<path d="M12.9273 0.912109H60.0727C67.221 0.912109 73 6.69109 73 13.8394V59.1598C73 66.3081 67.221 72.0871 60.0727 72.0871H12.9273C5.77898 72.0871 0 66.3081 0 59.1598V13.8394C0 6.69109 5.77898 0.912109 12.9273 0.912109Z" fill="#001E36"/>
<path d="M26.1583 19.0098C25.2458 19.0098 24.3333 19.0098 23.3906 19.0406C22.4473 19.0708 21.565 19.0708 20.7438 19.1016C19.9225 19.1318 19.1623 19.1318 18.4323 19.162C17.7325 19.1923 17.2461 19.1923 16.7288 19.1923C16.5161 19.1923 16.4248 19.3137 16.4248 19.527V50.8258C16.4248 51.0995 16.5463 51.2216 16.7898 51.2216H22.6908C22.9036 51.1908 23.0558 51.0083 23.025 50.7956V41.0318C23.6028 41.0318 24.0288 41.0318 24.3333 41.062C24.6373 41.0923 25.1238 41.0923 25.8538 41.0923C28.3483 41.0923 30.6296 40.8185 32.6975 40.0583C34.6748 39.3283 36.3783 38.0508 37.5948 36.3473C38.8115 34.6439 39.4198 32.4843 39.4198 29.8685C39.4198 28.4998 39.1769 27.192 38.7206 25.9145C38.2372 24.613 37.4798 23.4305 36.4998 22.447C35.3431 21.3233 33.9508 20.4712 32.4238 19.9525C30.7203 19.3137 28.6523 19.0098 26.1583 19.0098ZM26.837 25.0009C27.9206 25.0214 28.9757 25.2108 29.96 25.61C30.8423 25.9448 31.5723 26.5533 32.0896 27.3437C32.5747 28.1618 32.8174 29.1009 32.7894 30.0516C32.7894 31.3895 32.4848 32.4241 31.8461 33.1843C31.1765 33.9445 30.325 34.5228 29.3521 34.7966C28.2263 35.1616 27.04 35.3435 25.8538 35.3435H24.2415C23.8765 35.3435 23.4819 35.3133 23.0558 35.2831V25.0631C23.2686 25.0323 23.6946 25.002 24.3031 25.0328C24.8808 25.002 25.58 25.002 26.3711 25.002C26.5269 24.9982 26.6823 24.9979 26.837 25.0009ZM52.3471 26.5539C50.1873 26.5539 48.3925 26.8881 46.9633 27.6181C45.6556 28.2266 44.5298 29.1995 43.7696 30.416C43.1006 31.5418 42.735 32.7885 42.735 34.0968C42.709 35.1728 42.9494 36.2386 43.4348 37.1993C44.0037 38.2223 44.7935 39.1054 45.7469 39.7845C47.0849 40.6997 48.5369 41.4359 50.0658 41.9745C51.5561 42.5523 52.5598 43.0085 53.0469 43.4037C53.5333 43.7995 53.7769 44.1948 53.7769 44.6208C53.7769 45.1683 53.4421 45.6856 52.9556 45.8983C52.4081 46.172 51.5869 46.3243 50.4308 46.3243C49.2144 46.3243 47.9973 46.172 46.8413 45.8681C45.5139 45.5716 44.2413 45.0688 43.0698 44.3778C42.9786 44.3168 42.8873 44.2866 42.7961 44.3476C42.7048 44.4081 42.6746 44.5295 42.6746 44.6208V49.9133C42.6444 50.1568 42.7961 50.3695 43.0094 50.491C43.9957 50.9518 45.0391 51.2792 46.1119 51.4645C47.4806 51.7383 48.8488 51.8598 50.2478 51.8598C52.4378 51.8598 54.2633 51.5256 55.7536 50.8868C57.1223 50.3393 58.3086 49.3966 59.16 48.1795C59.9575 46.9831 60.3713 45.572 60.3463 44.1343C60.3763 43.0483 60.136 41.9718 59.6471 41.0016C59.0688 39.967 58.2475 39.1156 57.2438 38.4768C55.7754 37.5547 54.2031 36.8092 52.5598 36.256C51.8259 35.9523 51.1054 35.6174 50.4 35.2523C50.0048 35.0395 49.6398 34.7658 49.3661 34.431C49.1836 34.1875 49.0621 33.9143 49.0621 33.6406C49.0621 33.3668 49.1533 33.0628 49.305 32.8193C49.5183 32.5153 49.8525 32.302 50.2478 32.2108C50.8261 32.0591 51.4648 31.9673 52.0728 31.9975C53.2288 31.9975 54.354 32.1498 55.4798 32.3933C56.5144 32.606 57.4873 32.9408 58.3998 33.4278C58.5213 33.4883 58.6736 33.4883 58.9473 33.4278C58.9948 33.3926 59.0334 33.3467 59.0598 33.2938C59.0863 33.2409 59.0999 33.1824 59.0996 33.1233V28.1656C59.0996 28.0435 59.0688 27.922 59.0386 27.8006C58.9775 27.6791 58.8561 27.557 58.7346 27.5268C57.8956 27.1839 57.0166 26.9488 56.1186 26.827C54.8696 26.6452 53.6092 26.5543 52.3471 26.5539Z" fill="#31A8FF"/>
</svg>
