<svg width="73" height="73" viewBox="0 0 73 73" fill="none" xmlns="http://www.w3.org/2000/svg">
<path d="M64.5127 14.8656C52.5653 -0.605852 30.3362 -3.46198 14.8642 8.48778C-0.605556 20.4375 -3.45883 42.6666 8.49093 58.1363C20.443 73.6055 42.6738 76.4571 58.1412 64.505C73.6047 52.5553 76.4585 30.333 64.5127 14.8656Z" fill="#F37036"/>
<path d="M51.9426 13.7806C50.7241 13.8781 49.5688 14.3629 48.6456 15.1642C47.5653 16.1025 46.8759 17.4115 46.7133 18.8331C46.5507 20.2547 46.9268 21.6856 47.7674 22.8435C48.6072 24.0016 49.8505 24.803 51.2521 25.0896C52.6536 25.3763 54.1118 25.1273 55.3388 24.3919H55.34L55.4289 24.4808C55.8331 24.2493 56.2092 23.9718 56.5496 23.6539C57.6 22.5429 58.1779 21.0674 58.1613 19.5385C58.1447 18.0096 57.5349 16.547 56.4606 15.4591V15.4579L51.4168 20.4704L51.3278 20.382L56.3717 15.3673C55.7878 14.8044 55.091 14.372 54.3275 14.0987C53.5639 13.8253 52.751 13.7173 51.9426 13.7818V13.7806ZM45.3019 21.9857C42.8838 21.9817 38.9355 24.7227 29.2949 34.3632L29.3428 34.4123C29.2904 34.394 29.2373 34.3923 29.2373 34.3923L25.6079 37.9898C25.5147 38.0785 25.453 38.1952 25.4322 38.3221C25.4114 38.449 25.4326 38.5793 25.4927 38.6931C25.5527 38.8068 25.6483 38.8979 25.7648 38.9523C25.8813 39.0068 26.0125 39.0217 26.1383 38.9947L32.3626 37.667C32.3904 37.6414 32.4088 37.6073 32.4151 37.5701L32.5531 37.7127L30.4316 39.8171H30.3289L17.733 52.5123L21.7742 56.4041C21.8871 56.5063 22.0297 56.5697 22.1811 56.585C22.3326 56.6002 22.485 56.5666 22.616 56.4891C22.7481 56.4122 22.8539 56.2973 22.9195 56.1593C22.9851 56.0213 23.0076 55.8667 22.9839 55.7157L22.3936 53.1493C22.3565 53.0978 22.3365 53.036 22.3365 52.9725C22.3365 52.9091 22.3565 52.8472 22.3936 52.7957C27.9108 50.1654 33.0416 46.7914 37.6426 42.7679L35.0562 40.1804L35.1053 40.1724L33.5711 38.6389L33.6692 38.5396L33.773 38.6457L33.7194 38.6976L37.7897 42.8569V42.8552C45.5916 35.4673 51.1293 29.5287 49.6893 25.5319C49.6237 25.054 49.4017 24.6112 49.058 24.2727V24.275C48.9704 24.2103 48.8784 24.152 48.7825 24.1004C48.7352 24.0503 48.6935 23.9989 48.6434 23.9499L48.6057 23.9875C48.4997 23.9235 48.3887 23.8682 48.2738 23.8221L48.4386 23.6556C47.4143 22.7431 46.568 21.988 45.3019 21.9846V21.9857ZM17.6452 52.5881L14.6961 55.5378V55.5401C14.5903 55.6056 14.508 55.7031 14.4612 55.8184C14.4143 55.9337 14.4053 56.0609 14.4354 56.1817C14.4645 56.3024 14.531 56.4109 14.6253 56.4916C14.7196 56.5724 14.8369 56.6214 14.9607 56.6316L22.1877 57.1307L17.6452 52.5881Z" fill="white"/>
<path d="M52.4406 13.293C50.7853 13.2911 49.1959 13.9405 48.0155 15.1009C47.1758 15.9604 46.6009 17.0432 46.3592 18.2202C46.1176 19.3973 46.2194 20.619 46.6525 21.7399C43.9486 20.5821 40.2906 22.601 28.9123 33.9771C28.9044 33.9946 28.8973 34.0125 28.8912 34.0307C28.8678 34.0409 28.8451 34.0527 28.8233 34.066L25.2252 37.6955C25.0528 37.8648 24.9395 38.0852 24.9022 38.3239C24.8649 38.5627 24.9056 38.8071 25.0182 39.0209C25.1187 39.1902 25.261 39.3307 25.4315 39.429C25.602 39.5273 25.7949 39.58 25.9917 39.5821L26.1702 39.4663L30.9746 38.4415L28.6762 40.7609C28.6632 40.7915 28.6529 40.8232 28.6454 40.8556L17.3817 52.1472C17.3368 52.185 17.2997 52.2311 17.2722 52.283L14.3716 55.1858C14.2272 55.3385 14.1286 55.5287 14.0868 55.7346C14.0451 55.9406 14.062 56.1541 14.1355 56.351C14.2114 56.5464 14.3397 56.7172 14.5063 56.8444C14.673 56.9717 14.8714 57.0506 15.08 57.0724L22.2762 57.5743C22.3991 57.5316 22.5038 57.4481 22.5727 57.3376C22.6343 57.2515 22.6673 57.1483 22.6673 57.0425C22.6673 56.9367 22.6343 56.8335 22.5727 56.7474L22.5579 56.7331C22.7136 56.6522 22.8505 56.5395 22.96 56.4023C23.0754 56.2523 23.1561 56.0785 23.1961 55.8934C23.2362 55.7084 23.2346 55.5168 23.1915 55.3324L22.6303 52.9445C28.0144 50.3716 33.059 47.1417 37.6489 43.3285C37.6932 43.3543 37.7408 43.3741 37.7904 43.3872C37.9352 43.3764 38.071 43.3142 38.1736 43.2116C45.9013 35.8945 50.4439 30.8803 50.4439 26.8995C50.461 26.3473 50.3778 25.7965 50.1981 25.2741C50.8947 25.5624 51.6375 25.7227 52.3909 25.7475L52.3824 25.7497C53.4203 25.7184 54.4349 25.4346 55.3383 24.9228L55.3406 24.9234C55.4576 24.9581 55.5835 24.9469 55.6925 24.892C56.1285 24.6352 56.5259 24.318 56.873 23.9498C57.4612 23.3728 57.9285 22.6844 58.2475 21.9247C58.5666 21.165 58.731 20.3493 58.7311 19.5253C58.731 18.7014 58.5667 17.8858 58.2478 17.1261C57.9289 16.3664 57.4617 15.6779 56.8736 15.1009C56.8525 15.0819 56.83 15.0646 56.8063 15.049C55.6321 13.922 54.0675 13.2929 52.44 13.2935L52.4406 13.293ZM52.3909 14.3036C53.5435 14.3104 54.6622 14.6938 55.5767 15.3951L50.9754 20.0244C50.9598 20.0421 50.9454 20.0608 50.9321 20.0803C50.8491 20.1642 50.8005 20.276 50.7958 20.3939C50.7957 20.4652 50.8117 20.5355 50.8426 20.5997C50.8736 20.6639 50.9185 20.7203 50.9743 20.7646H50.9754L54.4543 24.2435C53.5021 24.6591 52.4466 24.7773 51.426 24.5826C50.4055 24.3879 49.4676 23.8895 48.7352 23.1525C47.2604 21.6697 46.8327 19.4432 47.6214 17.5116C48.4102 15.5782 50.2905 14.315 52.3909 14.3036ZM56.4516 16.2609C57.2039 17.1711 57.6141 18.3159 57.611 19.4968C57.6089 20.8803 57.0575 22.2063 56.078 23.1833C55.8816 23.3681 55.6723 23.5386 55.4518 23.6938L52.6442 20.9295L52.0949 20.3802L52.2461 20.2291L56.451 16.2597L56.4516 16.2609ZM56.2428 18.6522C56.1396 18.6197 56.0281 18.626 55.9292 18.6699C55.8313 18.7205 55.7574 18.8079 55.7238 18.9128C55.7073 18.9652 55.7013 19.0204 55.7062 19.0751C55.7111 19.1298 55.7268 19.183 55.7524 19.2316C55.8535 19.4448 55.8933 19.6818 55.8674 19.9163C55.8415 20.1507 55.7509 20.3734 55.6058 20.5593C55.5686 20.5952 55.5395 20.6386 55.5203 20.6865C55.5011 20.7345 55.4924 20.786 55.4946 20.8376C55.4969 20.9426 55.5345 21.0429 55.6058 21.1182C55.6818 21.1473 55.7659 21.1473 55.8419 21.1182C55.9105 21.1353 55.9824 21.1334 56.05 21.1126C56.1175 21.0918 56.1781 21.0529 56.2251 21.0002C56.468 20.7027 56.6218 20.3426 56.6687 19.9614C56.7156 19.5803 56.6538 19.1936 56.4903 18.8461V18.8484C56.4346 18.7549 56.3465 18.6851 56.2428 18.6522ZM45.2489 22.4864C45.9371 22.5099 46.5992 22.7551 47.1366 23.1856C46.558 23.2691 46.0217 23.5371 45.6076 23.9498L32.6005 36.8988L30.0478 34.3461C36.7935 27.6323 40.918 24.1255 43.4821 22.9763C44.0104 22.6436 44.6247 22.4737 45.2489 22.4864ZM47.5102 24.1745C47.9469 24.1749 48.3657 24.3479 48.6754 24.6559C48.8396 24.8106 48.9693 24.9984 49.0557 25.207C49.1421 25.4155 49.1833 25.6399 49.1767 25.8655C49.1692 26.0903 49.1154 26.3112 49.0188 26.5143C48.9221 26.7174 48.7846 26.8984 48.6149 27.0461L34.7848 39.0831L33.2923 37.5906L46.3451 24.6559C46.6548 24.3481 47.0736 24.1747 47.5102 24.1745ZM49.2177 27.9945C48.2539 31.8167 43.1456 36.9957 37.8189 42.0282L35.6648 39.8764L49.2177 27.9945ZM29.2956 35.1L29.4518 35.254L31.4553 37.2575L25.9632 38.4323L29.2956 35.1ZM32.5994 38.4306L32.6017 38.4329L33.2678 39.1144L33.2781 39.1623L33.3225 39.1692L33.464 39.314L33.9316 39.7931L30.8605 40.1695L32.5994 38.4306ZM34.8048 40.7552L36.8454 42.7947C32.3332 46.5467 27.3817 49.7365 22.0999 52.2938C21.9284 52.3755 21.7906 52.514 21.7098 52.6859C21.629 52.8578 21.6103 53.0524 21.6568 53.2365L22.2471 55.8029C22.2688 55.8331 22.2805 55.8693 22.2805 55.9064C22.2805 55.9436 22.2688 55.9798 22.2471 56.0099C22.2146 56.039 22.1726 56.0551 22.129 56.0551C22.0854 56.0551 22.0434 56.039 22.011 56.0099L18.5309 52.5014L29.2573 41.6175L34.8048 40.7552ZM17.7336 53.2679L18.2292 53.7321L20.7911 56.294L15.0788 55.9244L17.7336 53.2679Z" fill="#F37036"/>
</svg>
