<svg width="73" height="73" viewBox="0 0 73 73" fill="none" xmlns="http://www.w3.org/2000/svg">
<path d="M36.5006 43.0012C40.0913 43.0012 43.0022 40.0903 43.0022 36.4996C43.0022 32.9089 40.0913 29.998 36.5006 29.998C32.9099 29.998 29.999 32.9089 29.999 36.4996C29.999 40.0903 32.9099 43.0012 36.5006 43.0012Z" fill="#61DAFB"/>
<path d="M61.1949 25.7777C59.9402 25.3215 58.6285 24.8652 57.2598 24.466C57.602 23.0973 57.8871 21.7285 58.1152 20.4168C59.3129 12.8887 58.0012 7.58477 54.3512 5.53164C53.2676 4.9043 52.0699 4.61914 50.7012 4.61914C46.709 4.61914 41.6332 7.58477 36.5004 12.5465C31.3676 7.58477 26.2918 4.61914 22.2996 4.61914C20.9309 4.61914 19.7332 4.9043 18.6496 5.53164C14.9996 7.6418 13.6879 12.9457 14.8855 20.4168C15.1137 21.7285 15.3988 23.0973 15.741 24.466C14.3723 24.8652 13.0605 25.2645 11.8059 25.7777C4.67695 28.5152 0.798828 32.2793 0.798828 36.4996C0.798828 40.7199 4.73399 44.484 11.8059 47.2215C13.0605 47.6777 14.3723 48.134 15.741 48.5332C15.3988 49.902 15.1137 51.2707 14.8855 52.5824C13.6879 60.1105 14.9996 65.4145 18.6496 67.4676C19.7332 68.0949 20.9309 68.3801 22.2996 68.3801C26.3488 68.3801 31.4246 65.4145 36.5004 60.4527C41.6332 65.4145 46.709 68.3801 50.7012 68.3801C52.0699 68.3801 53.2676 68.0949 54.3512 67.4676C58.0012 65.3574 59.3129 60.0535 58.1152 52.5824C57.8871 51.2707 57.602 49.902 57.2598 48.5332C58.6285 48.134 59.9402 47.7348 61.1949 47.2215C68.3238 44.484 72.202 40.7199 72.202 36.4996C72.202 32.2793 68.3238 28.5152 61.1949 25.7777ZM52.7543 8.3832C55.0926 9.75195 55.891 13.9723 54.9215 19.9605C54.7504 21.1582 54.4652 22.4129 54.123 23.7246C51.1574 23.0402 48.0207 22.584 44.7129 22.2988C42.7738 19.5613 40.7777 17.109 38.7816 14.8848C43.002 10.7215 47.2793 7.86992 50.7582 7.86992C51.4996 7.86992 52.184 8.04102 52.7543 8.3832ZM46.3668 42.2027C45.3402 44.0277 44.1426 45.8527 42.8879 47.6777C40.7777 47.8488 38.6676 47.9059 36.5004 47.9059C34.2762 47.9059 32.166 47.8488 30.1129 47.6777C28.8582 45.8527 27.7176 44.0277 26.691 42.2027C25.6074 40.3207 24.5809 38.3816 23.6684 36.4996C24.5809 34.6176 25.6074 32.6785 26.691 30.7965C27.7176 28.9715 28.9152 27.1465 30.1699 25.3215C32.2801 25.1504 34.3902 25.0934 36.5574 25.0934C38.7816 25.0934 40.8918 25.1504 42.9449 25.3215C44.1996 27.1465 45.3402 28.9715 46.3668 30.7965C47.4504 32.6785 48.477 34.6176 49.3895 36.4996C48.4199 38.3816 47.4504 40.2637 46.3668 42.2027ZM51.1004 40.3207C51.9559 42.3168 52.6402 44.2559 53.2676 46.1949C51.3285 46.6512 49.2754 46.9934 47.1082 47.2785C47.7926 46.1949 48.534 45.0543 49.1613 43.8566C49.8457 42.659 50.473 41.4613 51.1004 40.3207ZM36.5004 55.7762C35.1316 54.2934 33.8199 52.6965 32.5652 51.0426C33.877 51.0996 35.1887 51.1566 36.5004 51.1566C37.8121 51.1566 39.1238 51.0996 40.4355 51.0426C39.1809 52.6965 37.8691 54.2934 36.5004 55.7762ZM25.8926 47.2215C23.7254 46.9363 21.6723 46.5941 19.7332 46.1379C20.3605 44.2559 21.0449 42.2598 21.9004 40.2637C22.5277 41.4043 23.1551 42.602 23.8395 43.7426C24.5238 44.9973 25.2082 46.0809 25.8926 47.2215ZM21.9004 32.6785C21.0449 30.6824 20.3605 28.7434 19.7332 26.8043C21.6723 26.348 23.7254 26.0059 25.8926 25.7207C25.2082 26.8043 24.4668 27.9449 23.8395 29.1426C23.1551 30.3402 22.5277 31.5379 21.9004 32.6785ZM36.5004 17.223C37.8691 18.7059 39.1809 20.3027 40.4355 21.9566C39.1238 21.8996 37.8121 21.8426 36.5004 21.8426C35.1887 21.8426 33.877 21.8996 32.5652 21.9566C33.8199 20.3027 35.1316 18.7059 36.5004 17.223ZM49.1613 29.1996L47.1082 25.7777C49.2754 26.0629 51.3285 26.4051 53.2676 26.8613C52.6402 28.7434 51.9559 30.7395 51.1004 32.7355C50.473 31.5379 49.8457 30.3402 49.1613 29.1996ZM18.0793 19.9605C17.1098 13.9723 17.9082 9.75195 20.2465 8.3832C20.8168 8.04102 21.5012 7.86992 22.2426 7.86992C25.6645 7.86992 29.9418 10.6645 34.2191 14.8848C32.223 17.052 30.227 19.5613 28.2879 22.2988C24.9801 22.584 21.8434 23.0973 18.8777 23.7246C18.5355 22.4129 18.3074 21.1582 18.0793 19.9605ZM3.99258 36.4996C3.99258 33.8191 7.24336 30.9676 12.9465 28.8574C14.0871 28.4012 15.3418 28.002 16.5965 27.6598C17.509 30.5113 18.6496 33.534 20.0184 36.5566C18.6496 39.5793 17.452 42.5449 16.5965 45.3965C8.72617 43.1152 3.99258 39.6934 3.99258 36.4996ZM20.2465 64.616C17.9082 63.2473 17.1098 59.027 18.0793 53.0387C18.2504 51.841 18.5355 50.5863 18.8777 49.2746C21.8434 49.959 24.9801 50.4152 28.2879 50.7004C30.227 53.4379 32.223 55.8902 34.2191 58.1145C29.9988 62.2777 25.7215 65.1293 22.2426 65.1293C21.5012 65.1293 20.8168 64.9582 20.2465 64.616ZM54.9215 53.0387C55.891 59.027 55.0926 63.2473 52.7543 64.616C52.184 64.9582 51.4996 65.1293 50.7582 65.1293C47.3363 65.1293 43.059 62.3348 38.7816 58.1145C40.7777 55.9473 42.7738 53.4379 44.7129 50.7004C48.0207 50.4152 51.1574 49.902 54.123 49.2746C54.4652 50.5863 54.6934 51.841 54.9215 53.0387ZM60.0543 44.1418C58.9137 44.598 57.659 44.9973 56.4043 45.3395C55.4918 42.4879 54.3512 39.4652 52.9824 36.4426C54.3512 33.4199 55.5488 30.4543 56.4043 27.6027C64.2746 29.884 69.0082 33.3059 69.0082 36.4996C69.0082 39.1801 65.7004 42.0316 60.0543 44.1418Z" fill="#61DAFB"/>
</svg>
