<svg width="64" height="64" viewBox="0 0 64 64" fill="none" xmlns="http://www.w3.org/2000/svg">
<path d="M49 0H15C6.71573 0 0 6.71573 0 15V49C0 57.2843 6.71573 64 15 64H49C57.2843 64 64 57.2843 64 49V15C64 6.71573 57.2843 0 49 0Z" fill="#242938"/>
<mask id="mask0_1008_160" style="mask-type:luminance" maskUnits="userSpaceOnUse" x="9" y="9" width="46" height="46">
<path d="M9.5 9.5H54.5V54.5H9.5V9.5Z" fill="white"/>
</mask>
<g mask="url(#mask0_1008_160)">
<path fill-rule="evenodd" clip-rule="evenodd" d="M50.9506 44.552C48.5031 44.484 46.6043 44.7348 45.0131 45.4043C44.5548 45.5883 43.8196 45.5883 43.7591 46.165C44.0041 46.407 44.0336 46.803 44.2483 47.1385C44.6151 47.7473 45.2586 48.5673 45.8396 48.9928L47.7981 50.3923C48.9916 51.1215 50.3381 51.5478 51.5008 52.2778C52.1743 52.7038 52.8473 53.2513 53.5208 53.708C53.8638 53.9513 54.0716 54.3475 54.5003 54.4988V54.4068C54.2863 54.134 54.2246 53.7388 54.0113 53.4333L53.0921 52.5518C52.2053 51.3658 51.1028 50.3308 49.9093 49.48C48.9298 48.8108 46.7883 47.8985 46.3903 46.7738L46.3301 46.7055C47.0023 46.6375 47.7981 46.4008 48.4413 46.2183C49.4826 45.9455 50.4306 46.0055 51.5008 45.732L52.9708 45.306V45.0333C52.4198 44.486 52.0221 43.7558 51.4411 43.2393C49.8806 41.901 48.1656 40.5928 46.3903 39.498C45.4418 38.89 44.2173 38.4938 43.2076 37.9778C42.8393 37.795 42.2281 37.7038 42.0141 37.3998C41.4618 36.7318 41.1566 35.8488 40.7588 35.0575L38.2496 29.7655C37.6988 28.5793 37.3613 27.393 36.6891 26.2983C33.5363 21.1275 30.1081 17.9953 24.8441 14.9228C23.7123 14.284 22.3658 14.0093 20.9341 13.6753L18.6391 13.5528C18.1486 13.34 17.6593 12.7618 17.2308 12.4878C15.4863 11.3928 10.9873 9.0208 9.70084 12.147C8.87459 14.1238 10.9256 16.07 11.6218 17.0743C12.1431 17.7738 12.8153 18.5643 13.1836 19.3553C13.3893 19.872 13.4581 20.42 13.6728 20.9675C14.1618 22.3055 14.6213 23.7965 15.2641 25.044C15.6071 25.6828 15.9673 26.3528 16.3958 26.9303C16.6408 27.271 17.0696 27.417 17.1608 27.9643C16.7321 28.573 16.7026 29.4845 16.4576 30.246C15.3553 33.683 15.7841 37.941 17.3446 40.4715C17.8351 41.2315 18.9908 42.905 20.5591 42.2658C21.9363 41.7183 21.6291 39.9848 22.0268 38.4638C22.1193 38.0993 22.0578 37.8558 22.2408 37.6118V37.68L23.4961 40.2043C24.4448 41.6945 26.0981 43.246 27.4746 44.2808C28.2086 44.8283 28.7903 45.7718 29.7081 46.1058V46.0138H29.6478C29.4638 45.741 29.1881 45.6183 28.9433 45.4055C28.3926 44.8583 27.7806 44.1888 27.3518 43.5808C26.0671 41.8778 24.9353 39.9915 23.9248 38.0453C23.4346 37.1025 23.0058 36.0683 22.6093 35.1255C22.4241 34.7603 22.4241 34.212 22.1188 34.0308C21.6591 34.6988 20.9871 35.2783 20.6488 36.099C20.0671 37.4065 20.0068 39.0188 19.7928 40.6918C19.6693 40.7223 19.7241 40.6918 19.6693 40.7598C18.6911 40.5173 18.3536 39.5123 17.9868 38.6615C17.0688 36.502 16.9151 33.0348 17.7108 30.5405C17.9248 29.9018 18.8441 27.8943 18.4771 27.286C18.2921 26.708 17.6813 26.374 17.3438 25.9173C16.9461 25.3393 16.5188 24.6098 16.2431 23.971C15.5091 22.2668 15.1421 20.3818 14.3456 18.6785C13.9773 17.8875 13.3353 17.066 12.8146 16.3368C12.2328 15.5153 11.5916 14.937 11.1321 13.9643C10.9791 13.6235 10.7651 13.0823 11.0098 12.7168C11.0703 12.4735 11.1936 12.376 11.4373 12.3215C11.8348 11.9805 12.9683 12.4128 13.3661 12.594C14.4978 13.0508 15.4466 13.4763 16.3953 14.1143C16.8241 14.4183 17.2836 14.9965 17.8343 15.1493H18.4778C19.4573 15.3618 20.5583 15.2173 21.4753 15.49C23.0978 16.008 24.5663 16.7675 25.8833 17.5895C29.8921 20.114 33.1983 23.703 35.4316 27.9923C35.7986 28.6918 35.9516 29.3305 36.2891 30.0605C36.9326 31.5515 37.7283 33.0718 38.3696 34.5325C39.0131 35.962 39.6248 37.423 40.5428 38.609C41.0023 39.2478 42.8378 39.5818 43.6638 39.9165C44.2763 40.1893 45.2243 40.4348 45.7766 40.7688C46.8163 41.4075 47.8571 42.1375 48.8358 42.837C49.3248 43.201 50.8561 43.9618 50.9471 44.5685L50.9506 44.552ZM19.7398 18.1213C19.3171 18.1177 18.8957 18.1688 18.4861 18.2733V18.3415H18.5463C18.7913 18.8283 19.2201 19.163 19.5258 19.589L20.2303 21.049L20.2908 20.981C20.7193 20.677 20.9341 20.1903 20.9341 19.461C20.7503 19.2483 20.7201 19.0348 20.5671 18.822C20.3833 18.518 19.9856 18.3653 19.7398 18.1228V18.1213Z" fill="white"/>
</g>
</svg>
