<svg width="73" height="73" viewBox="0 0 73 73" fill="none" xmlns="http://www.w3.org/2000/svg">
<path fill-rule="evenodd" clip-rule="evenodd" d="M19.2959 41.0842C21.0055 41.0834 22.6985 41.4194 24.2783 42.0729C25.858 42.7264 27.2936 43.6846 28.503 44.8929C29.7125 46.1012 30.6721 47.5359 31.327 49.115C31.982 50.6942 32.3195 52.3869 32.3203 54.0965C32.3179 57.5486 30.9444 60.8585 28.502 63.2981C26.0595 65.7377 22.748 67.1073 19.2959 67.1057C15.8437 67.1073 12.5323 65.7377 10.0898 63.2981C7.64738 60.8585 6.2739 57.5486 6.27148 54.0965C6.27228 52.3869 6.6098 50.6942 7.26477 49.115C7.91974 47.5359 8.87934 46.1012 10.0888 44.8929C11.2982 43.6846 12.7338 42.7264 14.3135 42.0729C15.8933 41.4194 17.5863 41.0834 19.2959 41.0842ZM19.1925 46.76L17.2124 48.7492L21.4038 52.9619L11.9533 52.9589V55.7816H21.4129L17.2124 59.9973L19.1894 61.9866L26.7784 54.3733L19.1925 46.76ZM67.1048 6.27539V44.3662H53.9679V57.4879H34.8753C35.2882 55.6621 35.3737 53.7774 35.1278 51.9217H48.3986V38.7999H61.5355V11.8386H34.5468V24.9634H21.4068V38.222C19.5508 37.9824 17.6673 38.0679 15.8406 38.4745V19.4002H28.9775V6.27539H67.1048ZM56.1092 17.2588V33.3797H42.9722V46.5045H33.391C31.8993 43.7239 29.6188 41.4466 26.8362 39.9588V30.3836H39.9731V17.2558L56.1092 17.2588Z" fill="#4285F4"/>
</svg>
