<svg width="73" height="73" viewBox="0 0 73 73" fill="none" xmlns="http://www.w3.org/2000/svg">
<path d="M52.4689 51.0553V21.9009L33.3064 36.4553M5.33823 27.6953C4.87027 27.1963 4.60606 26.5403 4.59762 25.8563C4.58917 25.1723 4.83711 24.51 5.2926 23.9996L9.1251 20.4409C9.76385 19.8478 11.3151 19.6196 12.4557 20.4409L23.3601 28.7903L48.682 5.56714C49.6857 4.56339 51.4651 4.10714 53.4726 5.20214L66.2476 11.3159C67.3882 12.0003 68.4832 13.0496 68.4832 15.0115V58.3096C68.4832 59.5871 67.5707 60.9559 66.567 61.5034L52.5145 68.2559C51.5107 68.6665 49.5945 68.2559 48.9101 67.6171L23.3145 44.2115L12.4557 52.5609C11.2239 53.3821 9.71823 53.154 9.07948 52.5609L5.24698 49.0478C4.24323 47.9984 4.33448 46.2646 5.42948 45.2153L15.0107 36.5465" fill="#2196F3"/>
</svg>
