<svg width="73" height="73" viewBox="0 0 73 73" fill="none" xmlns="http://www.w3.org/2000/svg">
<g clip-path="url(#clip0_1_1987)">
<path d="M8.97292 0C4.04542 0 0 4.015 0 8.97292V64.0271C0 68.985 4.015 73 8.97292 73H64.0271C68.9546 73 73 68.985 73 64.0271V8.97292C73 6.59315 72.0546 4.31085 70.3719 2.62811C68.6891 0.945358 66.4068 0 64.0271 0L8.97292 0ZM8.97292 3.31542H64.0271C67.1904 3.31542 69.6542 5.8035 69.6542 8.97292V51.5563H53.6246C52.6056 49.1351 45.8075 31.8767 54.4854 18.4021C54.637 18.1627 54.7213 17.8867 54.7291 17.6033C54.737 17.3198 54.6683 17.0396 54.5302 16.7921C54.3922 16.5446 54.1899 16.3391 53.9448 16.1974C53.6997 16.0557 53.4209 15.983 53.1379 15.987C37.1996 16.2395 28.1963 25.6899 23.5121 34.8758C19.4058 42.9058 18.5542 49.8103 18.3717 51.6962H3.31542V9.11283C3.31542 5.9495 5.80046 3.45533 8.9425 3.45533L8.97292 3.31542ZM50.3396 19.2537C42.3704 35.1921 51.0939 53.9287 51.0939 53.9287C51.2194 54.2021 51.4205 54.4337 51.6733 54.5959C51.9262 54.7582 52.2202 54.8444 52.5205 54.8443H69.6146V64.1214C69.6227 64.864 69.4829 65.6008 69.2034 66.2889C68.9238 66.9769 68.5101 67.6025 67.9864 68.1291C67.4627 68.6556 66.8393 69.0727 66.1528 69.3559C65.4663 69.6392 64.7302 69.783 63.9875 69.7789H8.93338C5.77004 69.7789 3.30629 67.2908 3.30629 64.1214V54.8443H19.7009C20.0959 54.8439 20.4762 54.6944 20.766 54.4255C21.0558 54.1565 21.2337 53.788 21.2643 53.3934C21.2643 53.3934 21.9517 44.8768 26.3135 36.2993C30.3893 28.3301 37.4764 20.5738 50.373 19.3572L50.3396 19.2537Z" fill="black"/>
</g>
<defs>
<clipPath id="clip0_1_1987">
<rect width="73" height="73" fill="white"/>
</clipPath>
</defs>
</svg>
