<svg width="73" height="58" viewBox="0 0 73 58" fill="none" xmlns="http://www.w3.org/2000/svg">
<path d="M11.2517 39.918L7.43285 41.302L7.22754 52.5741L20.4474 47.7825C15.9134 46.2717 12.6022 43.6127 11.2517 39.918Z" fill="#FDBD39"/>
<path d="M13.2504 27.9961L0 32.7988L7.43288 41.3024L11.2517 39.9183C9.90519 36.2344 10.7356 32.07 13.2504 27.9961Z" fill="#F69833"/>
<path d="M35.5486 11.73C18.6756 17.8457 7.79778 30.4654 11.2522 39.9171L72.3546 17.7699C68.9002 8.31818 52.4216 5.61396 35.5486 11.7294" fill="#FECF33"/>
<path d="M48.0582 45.9586C64.9309 39.8429 75.8296 27.279 72.3544 17.7715L11.252 39.9184C14.7269 49.4259 31.1852 52.0741 48.0582 45.9586Z" fill="#EE6723"/>
<path d="M72.3544 17.7715L11.252 39.919C12.4485 43.1925 17.011 44.8051 23.413 44.8051C29.6542 44.8051 37.6437 43.2737 45.9731 40.2545C62.8461 34.1388 74.7175 24.2369 72.3544 17.772" fill="#F69833"/>
<path d="M60.1935 12.8848C53.952 12.8848 45.9625 14.4165 37.633 17.4354C20.7604 23.5511 8.88901 33.453 11.2518 39.9181L72.3542 17.7709C71.158 14.4974 66.5952 12.8848 60.1935 12.8848Z" fill="#FDBD39"/>
<path d="M56.8185 53.1711H56.8179C55.0203 53.1711 52.368 51.5599 48.935 48.3823C44.8733 44.6231 40.2207 39.117 35.8344 32.8782C31.4478 26.6397 27.8435 20.4028 25.6851 15.3164C23.3334 9.77299 22.9981 6.36457 24.6885 5.1859C25.0592 4.92759 25.506 4.79688 26.0162 4.79688C27.3912 4.79688 30.0703 5.81258 35.0243 10.6515L35.1326 10.7573L35.1178 10.9075C35.084 11.2548 35.053 11.6023 35.0248 11.9501L34.9698 12.6337L34.4836 12.1479C29.1461 6.81245 26.7964 6.23641 26.0339 6.23641C25.8163 6.23641 25.6432 6.28026 25.5192 6.36684C24.7857 6.87808 24.7387 9.38142 27.0185 14.755C29.1384 19.751 32.6903 25.8939 37.0201 32.0512C41.3502 38.2094 45.9312 43.6342 49.9206 47.3264C54.2218 51.3075 56.1603 51.7373 56.794 51.7373C57.0127 51.7373 57.1906 51.6909 57.3224 51.5986C58.096 51.0597 58.0968 48.3778 55.5544 42.5939L55.4375 42.3285L55.6933 42.1899C55.9488 42.051 56.196 41.9143 56.4275 41.7836L56.7338 41.611L56.8747 41.9316C58.6774 46.0298 60.3627 51.2385 58.153 52.7799C57.7806 53.0393 57.3318 53.1711 56.8185 53.1711ZM56.8179 52.5388H56.8185L56.8182 52.8548L56.8179 52.5388Z" fill="#EE6723"/>
<path d="M48.4677 45.7852L48.442 46.1001C48.0155 51.3371 46.8922 57.6333 43.9637 57.888C43.9047 57.8932 43.8444 57.8959 43.7826 57.8959C41.7933 57.8959 39.911 55.0677 38.1887 49.4901C36.5587 44.2133 35.2943 37.1282 34.6277 29.5401C33.961 21.9534 33.9709 14.7572 34.6556 9.27745C35.4024 3.306 36.8231 0.187298 38.8788 0.0084878C38.9398 0.00282927 39.0028 0 39.065 0C40.5081 0 42.6833 1.62117 44.9098 9.17362L43.4561 9.45202C42.7127 6.92831 41.9023 4.87568 41.0978 3.46529C40.3539 2.16071 39.6304 1.44236 39.061 1.44236C39.042 1.44236 39.0232 1.44302 39.0048 1.44434C38.1137 1.52215 36.8159 3.66673 36.0922 9.45541C35.4198 14.8372 35.4115 21.9254 36.0694 29.4145C36.7278 36.9047 37.9717 43.8839 39.5723 49.0666C40.2889 51.3874 41.075 53.3003 41.8458 54.5984C42.5564 55.7952 43.2442 56.4544 43.782 56.4544C43.8006 56.4544 43.8192 56.4536 43.8376 56.4521C44.6902 56.378 46.2971 54.1463 46.9732 46.2939L48.4677 45.7852Z" fill="#EE6723"/>
</svg>
